<svg aria-hidden="true" style="position:absolute;width:0;height:0;overflow:hidden" xmlns="http://www.w3.org/2000/svg"><defs>
    
    <symbol id="instagram-icon" viewBox="0 0 32 32"><path fill="var(--color-current)" d="M22 0H10C4.478 0 0 4.478 0 10v12c0 5.522 4.478 10 10 10h12c5.522 0 10-4.478 10-10V10c0-5.522-4.478-10-10-10zm7 22c0 3.86-3.14 7-7 7H10c-3.86 0-7-3.14-7-7V10c0-3.86 3.14-7 7-7h12c3.86 0 7 3.14 7 7v12z"/><path fill="var(--color-current)" d="M16 8c-4.418 0-8 3.582-8 8s3.582 8 8 8 8-3.582 8-8-3.582-8-8-8zm0 13c-2.756 0-5-2.244-5-5 0-2.758 2.244-5 5-5s5 2.242 5 5c0 2.756-2.244 5-5 5zM24.6 8.466c.589 0 1.066-.477 1.066-1.066s-.477-1.066-1.066-1.066c-.589 0-1.066.477-1.066 1.066s.477 1.066 1.066 1.066z"/></symbol>
    
    <symbol id="fb-icon" viewBox="0 0 32 32"><path fill="var(--color-current)" d="M23.999.007 19.849 0c-4.662 0-7.675 3.091-7.675 7.875v3.631H8.002c-.361 0-.652.292-.652.653v5.261c0 .36.292.652.652.652h4.172v13.275c0 .36.292.652.652.652h5.444c.36 0 .652-.292.652-.652V18.072H23.8c.361 0 .652-.292.652-.652l.002-5.261c0-.173-.069-.339-.191-.461s-.289-.191-.462-.191h-4.88V8.429c0-1.479.352-2.23 2.28-2.23l2.795-.001c.36 0 .652-.292.652-.652V.661c0-.36-.292-.652-.652-.652z"/></symbol>
    
    <symbol id="vk-icon" viewBox="0 0 58 32"><path fill="var(--color-current)" d="M55.789 28.9c-.068-.146-.131-.268-.19-.365-.973-1.753-2.833-3.904-5.578-6.454l-.058-.058-.058-.058h-.03c-1.246-1.188-2.035-1.986-2.365-2.395-.604-.779-.74-1.567-.409-2.366.233-.603 1.11-1.878 2.628-3.825.798-1.032 1.431-1.859 1.898-2.482 3.368-4.478 4.829-7.339 4.381-8.585l-.174-.291c-.117-.175-.419-.336-.905-.482s-1.11-.17-1.869-.073l-8.41.058c-.136-.048-.331-.044-.584.015s-.38.088-.38.088l-.146.073-.116.088c-.097.058-.204.16-.321.306s-.214.316-.291.511c-.916 2.356-1.957 4.546-3.125 6.57-.72 1.207-1.382 2.253-1.986 3.139s-1.11 1.538-1.518 1.956c-.409.419-.778.754-1.11 1.007s-.584.361-.759.321c-.175-.039-.341-.078-.497-.117-.272-.175-.491-.414-.657-.715s-.278-.681-.336-1.139c-.058-.458-.093-.852-.102-1.183s-.005-.798.015-1.402c.02-.604.029-1.012.029-1.226 0-.74.014-1.543.043-2.409s.053-1.553.073-2.058c.02-.506.029-1.042.029-1.606s-.034-1.007-.102-1.329c-.067-.321-.17-.632-.306-.935s-.336-.535-.599-.701c-.263-.165-.589-.297-.978-.394C29.894.15 28.58.024 26.983.005c-3.621-.039-5.948.195-6.979.701-.409.214-.779.506-1.11.876-.351.428-.399.662-.146.701 1.168.175 1.995.594 2.482 1.256l.175.351c.136.253.273.701.409 1.343s.224 1.353.263 2.131c.097 1.421.097 2.638 0 3.65s-.189 1.801-.277 2.365c-.088.565-.219 1.022-.394 1.372s-.292.565-.351.642-.107.127-.146.146c-.253.097-.516.146-.789.146s-.604-.136-.993-.409c-.389-.273-.793-.647-1.212-1.124s-.891-1.144-1.417-2c-.525-.857-1.071-1.869-1.635-3.037l-.467-.847c-.292-.545-.691-1.338-1.197-2.38s-.954-2.049-1.343-3.023c-.156-.409-.389-.72-.701-.934l-.146-.088c-.097-.078-.253-.16-.467-.248s-.438-.151-.672-.19l-8.001.058c-.818 0-1.372.185-1.665.555l-.117.175c-.058.097-.088.253-.088.467s.058.477.175.788c1.168 2.745 2.438 5.393 3.811 7.943s2.565 4.605 3.577 6.161c1.012 1.558 2.044 3.028 3.095 4.41s1.747 2.268 2.088 2.657c.341.39.609.681.803.876l.73.701c.467.467 1.153 1.027 2.059 1.679s1.908 1.295 3.008 1.928c1.1.632 2.38 1.148 3.84 1.547s2.881.56 4.263.482h3.358c.681-.059 1.197-.273 1.548-.643l.116-.146c.078-.116.151-.297.219-.54s.102-.511.102-.803c-.02-.837.044-1.591.189-2.263s.311-1.178.497-1.519c.185-.341.395-.628.628-.861s.4-.375.497-.424c.097-.049.174-.082.233-.102.467-.156 1.017-.005 1.65.453s1.226 1.022 1.782 1.694c.555.672 1.222 1.426 2 2.263s1.46 1.46 2.044 1.869l.584.35c.39.234.896.448 1.519.643s1.167.243 1.635.146l7.476-.117c.739 0 1.315-.122 1.723-.365s.652-.511.73-.803c.078-.292.082-.623.015-.993-.069-.369-.138-.628-.205-.773z"/></symbol>
    
    <symbol id="yt-icon" viewBox="0 0 46 32"><path fill="var(--color-current)" d="M35.15 0H9.214C4.125 0 0 4.205 0 9.392v13.216C0 27.795 4.125 32 9.214 32H35.15c5.089 0 9.214-4.205 9.214-9.392V9.392C44.364 4.205 40.239 0 35.15 0zm-6.231 16.643-12.131 5.898c-.323.157-.697-.083-.697-.448V9.929c0-.37.383-.61.707-.443l12.131 6.266c.361.186.354.714-.011.891z"/></symbol>
    
    <symbol id="delivery-icon" viewBox="0 0 60 32"><path fill="var(--color-current)" d="M12.752 23.675c-2.342 0-4.164 1.821-4.164 4.163s1.822 4.163 4.164 4.163 4.164-1.821 4.164-4.163c0-2.341-1.822-4.163-4.164-4.163zM37.474 0h-2.082v5.073h7.807L37.474 0zM.26 28.618h5.205s.26-7.805 7.807-7.805c5.595 0 6.506 7.805 6.506 7.805H32.79V0H0l.26 28.618zm49.185-4.943c-2.342 0-4.164 1.821-4.164 4.163s1.822 4.163 4.164 4.163c2.342 0 4.164-1.821 4.164-4.163s-1.952-4.163-4.164-4.163zM44.501 6.504h-9.108v22.114H43.2s-1.041-6.504 6.506-6.504c5.725 0 5.595 6.504 5.595 6.504h4.814l.26-9.756L44.5 6.504zM43.2 23.415h-5.205v-2.602H43.2v2.602zm-.521-4.683-5.205-3.122V8.325h5.205l13.532 10.406H42.679z"/></symbol>
    
    <symbol id="enveloop-icon" viewBox="0 0 41 32"><path fill="var(--color-current)" d="M36.417.216H5.072C2.274.216-.001 2.491-.001 5.289v21.423c0 2.798 2.275 5.072 5.073 5.072h31.336c2.798 0 5.073-2.274 5.073-5.072V5.297C41.49 2.499 39.215.216 36.417.216zm2.756 26.496c0 1.519-1.236 2.755-2.755 2.755H5.073c-1.519 0-2.755-1.236-2.755-2.755V5.297c0-1.519 1.236-2.755 2.755-2.755h31.336c1.519 0 2.755 1.236 2.755 2.755v21.415h.009z"/><path fill="var(--color-current)" d="m26.161 15.734 10.145-9.098c.472-.429.515-1.159.086-1.639-.429-.472-1.159-.515-1.639-.086l-13.99 12.557-2.729-2.438c-.009-.009-.017-.017-.017-.026-.06-.06-.12-.112-.189-.163L6.722 4.902c-.481-.429-1.21-.386-1.639.094s-.386 1.21.094 1.639l10.265 9.175L5.22 25.38c-.463.438-.489 1.167-.051 1.639.232.24.541.369.85.369.283 0 .567-.103.79-.309l10.377-9.707 2.815 2.515c.223.197.498.292.772.292s.558-.103.772-.3l2.892-2.592 10.317 9.802c.223.215.515.318.798.318.309 0 .609-.12.841-.36.438-.463.421-1.202-.043-1.639l-10.188-9.673z"/></symbol>
    
    <symbol id="search-icon" viewBox="0 0 32 32" fill="var(--color-current)"><path d="m31.54 28.695-7.247-6.961c1.781-2.206 2.845-4.971 2.845-7.972 0-7.187-6.087-13.034-13.569-13.034C6.088.728.002 6.574.002 13.762S6.089 26.797 13.57 26.797c3.227 0 6.193-1.089 8.525-2.903l7.223 6.937c.306.295.709.443 1.111.443.404 0 .806-.148 1.113-.443.614-.591.614-1.545 0-2.135zM3.146 13.761c0-5.52 4.676-10.011 10.422-10.011 5.748 0 10.423 4.49 10.423 10.011s-4.676 10.013-10.423 10.013c-5.746 0-10.422-4.494-10.422-10.013z"/></symbol>
    
    <symbol id="logo-icon" viewBox="0 0 32 32"><path fill="#f13c6e" style="fill:var(--color1, #f13c6e)" d="m22.888 10.149-4.213 4.213 1.631 1.631 4.213-4.213-1.631-1.631zM14.364 18.683l-4.213 4.213 1.631 1.631 4.213-4.213-1.631-1.631zM20.207 7.482l-4.213 4.213 1.631 1.631 4.213-4.213-1.631-1.631zM11.694 16.004l-4.213 4.213 1.631 1.631 4.213-4.213-1.631-1.631zM9.103 10.149 7.472 11.78l4.213 4.213 1.631-1.631-4.213-4.213zM11.782 7.48l-1.631 1.631 4.213 4.213 1.631-1.631-4.213-4.213zM20.304 15.992l-1.631 1.631 4.213 4.213 1.631-1.631-4.213-4.213zM17.637 18.674l-1.631 1.631 4.213 4.213 1.631-1.631-4.213-4.213z"/><path fill="#efefef" style="fill:var(--color4, #efefef)" d="m21.842 26.158-1.627-1.627-4.216 4.216-4.216-4.216-1.627 1.627L15.998 32l5.842-5.842zM7.469 11.784l-1.627-1.627L0 15.999l5.842 5.842 1.627-1.627-4.216-4.216 4.216-4.216zM26.158 10.158l-1.627 1.627 4.216 4.216-4.216 4.216 1.627 1.627L32 16.002l-5.842-5.842zM20.216 7.469l1.627-1.627L16.001 0l-5.842 5.842 1.627 1.627 4.216-4.216 4.216 4.216z"/></symbol>
    
    </defs></svg>